<svg t="1665309917091" class="icon" viewBox="0 0 1047 1024" version="1.1" xmlns="http://www.w3.org/2000/svg" p-id="21661" width="42" height="42"><path d="M824.121496 80.980426l-369.118303 98.398699 57.209751 84.814699-436.970238 294.742026 22.571056 33.455206 436.969359-294.741586 55.636742 82.490756 233.695046-299.155409 0.007026-0.004391z m-0.721951 295.02132l-369.118303 98.394747 135.41711 200.761979L823.392519 376.006137l0.007026-0.004391z m-367.623461 220.791276l-56.439934 38.069279 22.571055 33.459598 56.440373-38.064887-22.571494-33.46399z m-112.883821 76.138558l-56.443008 38.070156 22.570177 33.467503 56.444326-38.073231-22.571495-33.463989z m-120.164367 81.055637l-56.443887 38.07367 22.570617 33.463551 56.444325-38.081575-22.571055-33.455646z m-112.883821 76.138558l-34.601369 23.343507 22.571056 33.460037 34.60049-23.339116-22.570177-33.463989z" p-id="21662"></path></svg>